<svg xmlns="http://www.w3.org/2000/svg" xmlns:xlink="http://www.w3.org/1999/xlink" viewBox="350 50 870 790">
  <defs>
    <linearGradient id="lg" x1="1125.91" y1="618.05" x2="646.95" y2="-17.59" gradientUnits="userSpaceOnUse">
      <stop offset=".4" stop-color="#05b8b6"/>
      <stop offset="1" stop-color="#0451ad"/>
    </linearGradient>
    <linearGradient id="lg1" x1="855.28" y1="356.34" x2="855.28" y2="821.88" gradientUnits="userSpaceOnUse">
      <stop offset="0" stop-color="#05b8b6"/>
      <stop offset=".28" stop-color="#0497b3"/>
      <stop offset=".76" stop-color="#0464ae"/>
      <stop offset="1" stop-color="#0451ad"/>
    </linearGradient>
  </defs>
  <g>
    <path fill="url(#lg)" d="M1202.69,273.4c-163.51-1.36-304.37-17.7-399.51,97.24,2.09-17.39,11.46-77.32,62.92-126.96,56.8-54.78,124.96-58.49,141-58.93v49.98l83.56-67.89-83.56-69.39v52.22c-6.16-1.16-34.76-6.1-71.62-1.14-143.37,3.47-183.81,83.65-184.28,193.63v31.92c0,26.96-10.16,52.94-28.46,72.74l-71.5,77.38v-211.47c0-32.68,6.38-65.12,19.45-95.06,5.99-13.72,12.88-26.01,20.83-36.65,12.79-19.36,35.45-48.32,71.87-73.36,49.32-33.91,97.94-42.84,123.17-45.64h117.89c30.26,0,60.32,5.69,88.21,17.43,74.08,31.19,112.21,94.54,110.03,193.95Z"/>
    <path fill="#0251b0" d="M886.56,62.02c-25.23,2.8-73.86,11.73-123.17,45.64-36.42,25.04-59.08,54-71.87,73.36-44.61,58.12-96.97,91.9-159.66,93.25,0,0-170.47-1.85-170.47-.88,4.59-158,93.5-212.77,228.29-211.37h296.87Z"/>
    <path fill="#0251b0" d="M935.49,148.54c-34.24,4.6-75.6,17.73-112.66,50.38-61.92,54.55-70.17,126.85-71.63,143.24.48-109.97,40.91-190.16,184.28-193.63Z"/>
    <path fill="url(#lg1)" d="M807.16,821.88h0c58.94-12.68,96.24-67.71,96.24-120.86v-344.68h0c-55.95,19.4-96.24,86.36-96.24,139.51v326.02Z"/>
    <path fill="#0451ad" d="M751.2,465.27v33.64c-12.07,10-23.4,20.54-33.51,31.98-29.18,33.02-44.81,75.83-44.81,119.9v117c-11.28-19.26-17.91-41.44-17.91-62.29v-91.01c0-53.15,44.02-104.45,96.24-149.21Z"/>
    <path fill="#025eb2" d="M751.2,498.91v321.48c-32.29,0-60.87-22.79-78.33-52.6v-117c0-44.06,15.63-86.88,44.81-119.9,10.11-11.45,21.44-21.98,33.51-31.98Z"/>
  </g>
</svg>
